<?xml version="1.0" encoding="UTF-8" ?>
<!DOCTYPE svg PUBLIC "-//W3C//DTD SVG 1.1//EN" "http://www.w3.org/Graphics/SVG/1.1/DTD/svg11.dtd">
<svg width="2133pt" height="469pt" viewBox="0 0 2133 469" version="1.1" xmlns="http://www.w3.org/2000/svg">
<path fill="#000000" d=" M 0.00 0.00 L 2133.00 0.00 L 2133.00 469.00 L 1153.25 469.00 C 1171.84 467.87 1190.90 463.27 1206.04 451.95 C 1219.15 442.37 1228.42 428.26 1233.75 413.05 C 1241.08 392.39 1242.39 370.18 1241.56 348.45 C 1217.81 348.45 1194.05 348.40 1170.30 348.48 C 1169.85 359.64 1170.01 370.89 1168.23 381.95 C 1167.11 387.99 1165.35 394.33 1160.90 398.82 C 1155.44 403.94 1147.13 404.65 1140.22 402.60 C 1134.09 400.74 1129.42 395.68 1127.02 389.87 C 1124.31 383.32 1123.44 376.13 1123.49 369.08 C 1123.50 350.93 1123.50 332.79 1123.50 314.64 C 1163.77 314.60 1204.05 314.72 1244.33 314.58 C 1244.31 306.05 1244.31 297.53 1244.32 289.00 C 1244.32 281.00 1244.31 273.00 1244.33 265.00 C 1244.31 251.33 1244.30 237.66 1244.33 223.99 C 1244.16 205.54 1240.99 186.53 1231.27 170.56 C 1221.46 153.81 1204.54 142.07 1186.12 136.58 C 1170.26 131.68 1153.42 130.69 1136.95 131.98 C 1121.61 133.19 1106.19 136.96 1092.93 144.98 C 1081.40 151.79 1072.07 162.01 1065.79 173.79 C 1061.05 182.26 1058.13 191.59 1055.84 200.99 C 1052.25 217.72 1051.74 234.91 1051.83 251.97 C 1051.83 284.31 1051.83 316.66 1051.83 349.01 C 1051.73 369.81 1051.28 391.08 1057.75 411.12 C 1058.09 412.11 1058.43 413.11 1058.78 414.11 C 1063.85 427.99 1072.37 440.73 1084.03 449.91 C 1099.54 462.38 1119.55 467.81 1139.14 469.00 L 762.16 469.00 C 774.00 467.72 784.92 461.62 793.33 453.36 C 802.62 444.34 809.27 432.99 814.45 421.21 C 814.86 433.70 814.52 446.20 814.64 458.70 C 836.88 458.66 859.13 458.76 881.37 458.65 C 881.35 316.64 881.38 174.62 881.36 32.60 C 857.47 32.55 833.57 32.59 809.68 32.58 C 809.57 78.42 809.84 124.26 809.55 170.10 C 802.50 157.80 794.13 145.51 781.59 138.26 C 768.14 130.08 750.54 129.23 736.32 135.93 C 723.48 142.01 714.54 154.02 708.89 166.73 C 698.71 189.34 696.25 214.48 695.66 238.99 C 695.69 274.00 695.66 309.01 695.67 344.02 C 695.73 352.02 695.36 360.05 696.29 368.01 C 696.25 377.79 697.71 387.47 698.75 397.17 L 699.15 397.73 C 701.71 415.54 707.08 433.50 717.79 448.18 C 726.63 460.23 740.79 467.99 755.70 469.00 L 455.82 469.00 C 474.45 467.80 493.57 463.18 508.66 451.72 C 523.14 441.02 532.74 424.86 537.86 407.80 C 540.86 398.15 542.33 388.12 543.34 378.09 C 543.71 373.49 543.41 368.83 544.21 364.27 C 544.57 358.97 543.88 353.70 543.59 348.42 C 519.93 348.49 496.26 348.37 472.60 348.48 C 472.60 358.48 472.04 368.45 471.19 378.41 C 470.12 385.50 468.63 393.14 463.49 398.52 C 458.45 403.65 450.55 404.50 443.83 402.98 C 437.44 401.42 432.24 396.50 429.66 390.53 C 426.40 383.50 425.71 375.62 425.64 367.97 C 425.66 350.20 425.64 332.43 425.65 314.67 C 465.91 314.61 506.17 314.65 546.44 314.65 C 546.46 283.75 546.43 252.86 546.45 221.97 C 546.26 203.00 542.45 183.35 531.64 167.41 C 523.37 154.94 511.05 145.47 497.28 139.78 C 476.13 130.99 452.49 129.95 430.03 133.02 C 410.57 135.82 391.26 144.14 378.18 159.20 C 363.80 175.70 357.42 197.62 355.30 219.04 C 354.17 227.30 354.42 235.66 354.30 243.98 C 354.35 287.31 354.21 330.65 354.36 373.98 C 354.46 394.63 359.20 415.80 370.79 433.15 C 381.12 448.40 397.11 459.44 414.79 464.43 C 423.52 467.03 432.57 468.47 441.65 469.00 L 0.00 469.00 L 0.00 458.70 C 30.66 458.70 61.32 458.70 91.98 458.70 C 108.37 458.56 124.98 459.62 141.07 455.76 C 161.69 451.44 180.88 439.27 192.31 421.39 C 206.99 398.18 210.02 369.86 210.19 343.00 C 210.18 329.33 210.19 315.67 210.19 302.00 C 210.18 294.00 210.18 286.00 210.19 278.01 C 210.18 268.34 210.18 258.67 210.19 249.00 C 210.18 238.67 210.18 228.33 210.19 218.00 C 210.18 209.33 210.18 200.66 210.19 192.00 C 210.18 186.00 210.18 179.99 210.19 173.99 C 210.19 145.22 210.65 115.51 200.44 88.14 C 194.42 71.38 182.79 56.43 167.13 47.71 C 147.39 36.57 124.31 33.73 102.02 32.87 C 68.02 32.31 34.01 32.69 0.00 32.58 L 0.00 0.00 Z" />
<path fill="#fefefe" d=" M 1583.79 22.81 C 1590.86 22.38 1597.96 22.47 1605.04 22.87 C 1609.68 23.65 1614.40 23.98 1619.04 24.90 C 1620.38 25.26 1621.74 25.53 1623.15 25.81 C 1624.45 26.16 1625.80 26.48 1627.17 26.79 C 1628.41 27.19 1629.70 27.56 1631.00 27.94 C 1649.15 33.66 1665.80 44.85 1676.76 60.54 C 1683.94 70.64 1688.87 82.20 1691.92 94.17 C 1692.31 95.79 1692.58 97.44 1692.94 99.07 C 1693.38 101.01 1693.68 102.99 1694.20 104.92 C 1696.15 118.87 1696.03 133.03 1695.22 147.08 C 1694.62 149.38 1694.44 151.74 1694.23 154.10 C 1693.72 156.02 1693.40 157.99 1692.98 159.93 C 1690.22 173.71 1684.75 186.78 1678.27 199.20 C 1677.76 200.08 1677.27 200.97 1676.80 201.86 C 1667.58 218.57 1656.33 234.03 1646.20 250.17 C 1638.32 263.02 1630.07 276.11 1626.97 291.08 C 1626.64 292.77 1626.39 294.46 1626.17 296.17 C 1625.40 299.22 1625.39 302.38 1625.29 305.50 L 1624.72 305.55 C 1624.65 310.06 1624.39 314.55 1624.22 319.06 C 1623.94 320.24 1623.69 321.42 1623.48 322.61 C 1600.88 322.51 1578.28 322.67 1555.68 322.53 C 1555.47 312.87 1555.64 303.21 1555.65 293.55 L 1556.28 293.57 C 1556.23 288.87 1556.56 284.18 1556.71 279.49 L 1557.26 279.45 C 1557.36 276.97 1557.49 274.48 1557.96 272.04 C 1558.34 270.07 1558.61 268.09 1559.01 266.12 C 1561.31 256.08 1564.12 245.81 1570.22 237.33 C 1571.57 235.30 1572.87 233.23 1574.21 231.18 C 1585.55 214.43 1596.49 197.34 1605.26 179.07 C 1607.16 174.73 1609.16 170.42 1610.73 165.93 C 1614.91 154.44 1617.79 142.18 1616.49 129.87 C 1615.60 121.04 1613.33 111.60 1606.77 105.19 C 1596.95 95.49 1578.01 98.17 1571.77 110.69 C 1564.36 125.03 1565.24 141.77 1565.04 157.45 C 1541.18 157.45 1517.32 157.45 1493.46 157.44 C 1492.31 134.58 1495.17 111.41 1502.85 89.80 C 1503.48 88.18 1504.13 86.55 1504.75 84.91 C 1505.75 82.60 1506.77 80.29 1507.80 77.99 C 1511.03 71.38 1514.88 65.10 1519.20 59.15 C 1530.24 44.45 1545.60 32.83 1563.16 27.14 C 1564.41 26.73 1565.68 26.34 1566.97 25.92 C 1568.28 25.60 1569.62 25.30 1570.96 24.96 C 1572.60 24.61 1574.28 24.30 1575.93 23.85 C 1578.54 23.57 1581.19 23.38 1583.79 22.81 Z" />
<path fill="#e91b24" d=" M 1787.90 24.79 C 1805.37 20.92 1823.62 22.08 1840.96 26.10 C 1857.01 30.14 1872.50 37.84 1884.05 49.88 C 1897.97 63.22 1906.05 81.65 1909.67 100.36 C 1914.63 126.46 1913.31 154.05 1903.88 179.03 C 1903.50 179.98 1903.15 180.93 1902.81 181.88 C 1889.48 215.46 1864.33 242.48 1848.78 274.88 C 1841.94 289.78 1841.19 306.40 1840.30 322.50 C 1817.67 322.65 1795.03 322.57 1772.40 322.54 C 1772.38 319.35 1772.39 316.16 1771.84 313.02 C 1771.62 306.01 1772.65 299.04 1772.46 292.02 C 1773.09 277.06 1775.39 261.98 1780.82 247.96 C 1783.09 241.72 1787.29 236.50 1790.83 230.96 C 1805.75 208.59 1820.58 185.69 1829.30 160.06 C 1829.41 159.53 1829.62 158.46 1829.72 157.92 C 1830.23 156.32 1830.70 154.71 1831.24 153.12 C 1831.50 151.40 1831.79 149.69 1832.17 147.99 C 1832.40 145.62 1832.69 143.25 1833.25 140.93 C 1833.85 134.92 1832.71 128.97 1832.04 123.02 C 1830.47 116.45 1828.05 109.72 1822.99 105.00 C 1816.39 98.63 1805.76 97.97 1797.66 101.63 C 1790.76 104.86 1786.94 111.96 1784.71 118.90 C 1781.41 131.46 1781.43 144.53 1781.45 157.43 C 1757.70 157.55 1733.96 157.40 1710.22 157.50 C 1709.28 153.06 1709.47 148.50 1709.57 144.00 C 1710.18 133.61 1710.97 123.24 1712.78 112.98 C 1714.03 107.62 1715.25 102.25 1716.82 96.97 C 1721.72 81.58 1728.87 66.68 1739.52 54.42 C 1751.03 40.76 1766.62 30.43 1783.93 25.81 C 1785.22 25.49 1786.57 25.16 1787.90 24.79 Z" />
<path fill="#02abeb" d=" M 2008.99 23.86 C 2011.31 23.58 2013.64 23.28 2015.96 22.78 C 2023.29 22.36 2030.66 22.39 2038.00 22.81 C 2041.25 23.49 2044.61 23.54 2047.89 24.14 C 2049.56 24.44 2051.24 24.74 2052.94 25.11 C 2055.33 25.64 2057.73 26.22 2060.15 26.75 C 2076.03 31.29 2091.09 39.50 2102.46 51.61 C 2111.14 60.93 2117.51 72.20 2121.84 84.14 C 2122.64 86.71 2123.42 89.29 2124.25 91.87 C 2126.65 102.08 2128.58 112.48 2128.59 123.01 C 2128.61 133.67 2129.11 144.46 2126.78 154.94 C 2126.56 156.31 2126.35 157.68 2126.21 159.06 C 2124.89 164.37 2123.61 169.69 2121.85 174.87 C 2119.25 182.56 2115.87 189.95 2112.25 197.20 C 2102.68 215.50 2090.44 232.17 2079.51 249.63 C 2071.97 261.66 2064.37 273.93 2060.68 287.78 C 2060.08 290.52 2059.52 293.28 2058.97 296.03 C 2057.86 303.31 2057.74 310.69 2056.85 317.98 C 2056.67 319.50 2056.55 321.03 2056.46 322.57 C 2034.04 322.59 2011.62 322.58 1989.20 322.58 C 1989.13 309.38 1988.99 296.18 1989.50 282.99 C 1990.45 271.38 1992.84 259.84 1996.93 248.92 C 1999.59 241.50 2004.56 235.28 2008.76 228.71 C 2018.27 214.60 2027.34 200.16 2035.23 185.07 C 2035.70 184.00 2036.20 182.93 2036.73 181.87 C 2038.14 178.94 2039.49 175.98 2040.79 172.99 C 2044.51 164.30 2047.44 155.27 2049.06 145.94 C 2050.29 134.45 2049.85 122.25 2044.54 111.75 C 2041.28 105.67 2035.29 99.92 2027.95 100.17 C 2022.75 100.25 2017.00 99.36 2012.46 102.49 C 2007.28 105.35 2004.32 110.74 2002.14 116.02 C 1997.78 129.38 1998.23 143.59 1997.70 157.46 C 1973.92 157.45 1950.15 157.48 1926.37 157.45 C 1925.72 140.16 1926.87 122.80 1930.85 105.92 C 1932.37 100.52 1933.80 95.09 1935.71 89.81 C 1936.18 88.58 1936.64 87.34 1937.16 86.11 C 1946.36 62.51 1963.53 41.43 1986.80 30.67 C 1990.14 29.30 1993.51 28.01 1996.88 26.70 C 1997.44 26.59 1998.55 26.38 1999.11 26.27 C 2000.71 25.76 2002.31 25.30 2003.96 24.81 C 2005.61 24.53 2007.31 24.24 2008.99 23.86 Z" />
<path fill="#fefefe" d=" M 0.00 32.58 C 34.01 32.69 68.02 32.31 102.02 32.87 C 124.31 33.73 147.39 36.57 167.13 47.71 C 182.79 56.43 194.42 71.38 200.44 88.14 C 210.65 115.51 210.19 145.22 210.19 173.99 C 210.18 179.99 210.18 186.00 210.19 192.00 C 210.18 200.66 210.18 209.33 210.19 218.00 C 210.18 228.33 210.18 238.67 210.19 249.00 C 210.18 258.67 210.18 268.34 210.19 278.01 C 210.18 286.00 210.18 294.00 210.19 302.00 C 210.19 315.67 210.18 329.33 210.19 343.00 C 210.02 369.86 206.99 398.18 192.31 421.39 C 180.88 439.27 161.69 451.44 141.07 455.76 C 124.98 459.62 108.37 458.56 91.98 458.70 C 61.32 458.70 30.66 458.70 0.00 458.70 L 0.00 32.58 Z" />
<path fill="#fefefe" d=" M 247.61 32.58 C 271.31 32.58 295.02 32.59 318.72 32.57 C 318.96 37.04 318.27 41.59 319.19 46.00 C 318.87 47.31 318.71 48.64 318.73 49.99 C 318.76 66.64 318.76 83.29 318.73 99.94 C 318.72 101.31 318.87 102.66 319.18 104.00 C 318.74 105.87 318.70 107.78 318.68 109.69 C 294.99 109.66 271.29 109.69 247.60 109.68 C 247.61 83.98 247.58 58.28 247.61 32.58 Z" />
<path fill="#fefefe" d=" M 809.68 32.58 C 833.57 32.59 857.47 32.55 881.36 32.60 C 881.38 174.62 881.35 316.64 881.37 458.65 C 859.13 458.76 836.88 458.66 814.64 458.70 C 814.52 446.20 814.86 433.70 814.45 421.21 C 809.27 432.99 802.62 444.34 793.33 453.36 C 784.92 461.62 774.00 467.72 762.16 469.00 L 755.70 469.00 C 740.79 467.99 726.63 460.23 717.79 448.18 C 707.08 433.50 701.71 415.54 699.15 397.73 L 698.75 397.17 C 697.71 387.47 696.25 377.79 696.29 368.01 C 695.36 360.05 695.73 352.02 695.67 344.02 C 695.66 309.01 695.69 274.00 695.66 238.99 C 696.25 214.48 698.71 189.34 708.89 166.73 C 714.54 154.02 723.48 142.01 736.32 135.93 C 750.54 129.23 768.14 130.08 781.59 138.26 C 794.13 145.51 802.50 157.80 809.55 170.10 C 809.84 124.26 809.57 78.42 809.68 32.58 Z" />
<path fill="#fefefe" d=" M 1277.78 60.00 C 1278.02 50.86 1277.25 41.66 1278.23 32.56 C 1301.99 32.60 1325.76 32.57 1349.52 32.58 C 1349.57 58.28 1349.53 83.98 1349.54 109.68 C 1325.62 109.63 1301.69 109.78 1277.77 109.60 C 1277.79 93.07 1277.77 76.53 1277.78 60.00 Z" />
<path fill="#000000" d=" M 79.30 382.04 C 79.29 291.24 79.29 200.44 79.30 109.65 C 85.93 109.56 92.50 110.57 99.12 110.78 C 101.07 111.27 103.07 111.55 105.07 111.81 C 106.67 112.28 108.29 112.68 109.90 113.15 C 117.24 115.38 123.13 120.96 126.06 128.02 C 126.69 130.06 127.37 132.08 128.06 134.10 C 128.33 135.45 128.57 136.80 128.83 138.15 C 131.15 149.61 130.62 161.35 130.71 172.97 C 130.71 214.98 130.71 256.99 130.70 298.99 C 130.76 302.31 130.41 305.69 131.19 308.96 C 131.33 317.32 131.32 325.69 131.20 334.05 C 130.36 338.45 130.55 342.97 130.30 347.43 L 129.76 347.45 C 129.61 349.62 129.43 351.80 128.91 353.92 C 128.69 354.99 128.47 356.06 128.27 357.14 C 127.93 358.15 127.60 359.18 127.29 360.21 C 126.83 361.45 126.39 362.70 125.95 363.96 C 122.90 370.47 117.82 376.15 111.02 378.82 C 101.03 383.01 89.91 382.83 79.30 382.04 Z" />
<path fill="#fefefe" d=" M 430.03 133.02 C 452.49 129.95 476.13 130.99 497.28 139.78 C 511.05 145.47 523.37 154.94 531.64 167.41 C 542.45 183.35 546.26 203.00 546.45 221.97 C 546.43 252.86 546.46 283.75 546.44 314.65 C 506.17 314.65 465.91 314.61 425.65 314.67 C 425.64 332.43 425.66 350.20 425.64 367.97 C 425.71 375.62 426.40 383.50 429.66 390.53 C 432.24 396.50 437.44 401.42 443.83 402.98 C 450.55 404.50 458.45 403.65 463.49 398.52 C 468.63 393.14 470.12 385.50 471.19 378.41 C 472.04 368.45 472.60 358.48 472.60 348.48 C 496.26 348.37 519.93 348.49 543.59 348.42 C 543.88 353.70 544.57 358.97 544.21 364.27 C 543.41 368.83 543.71 373.49 543.34 378.09 C 542.33 388.12 540.86 398.15 537.86 407.80 C 532.74 424.86 523.14 441.02 508.66 451.72 C 493.57 463.18 474.45 467.80 455.82 469.00 L 441.65 469.00 C 432.57 468.47 423.52 467.03 414.79 464.43 C 397.11 459.44 381.12 448.40 370.79 433.15 C 359.20 415.80 354.46 394.63 354.36 373.98 C 354.21 330.65 354.35 287.31 354.30 243.98 C 354.42 235.66 354.17 227.30 355.30 219.04 C 357.42 197.62 363.80 175.70 378.18 159.20 C 391.26 144.14 410.57 135.82 430.03 133.02 Z" />
<path fill="#fefefe" d=" M 1028.47 131.64 C 1030.55 131.61 1032.64 131.57 1034.74 131.53 C 1035.73 143.32 1034.94 155.19 1035.19 167.01 C 1035.19 189.28 1035.19 211.55 1035.19 233.82 C 1033.14 233.59 1031.10 233.32 1029.12 232.80 C 1026.38 232.52 1023.62 232.42 1020.96 231.73 C 1020.23 231.81 1018.76 231.98 1018.03 232.07 C 1014.38 231.25 1010.62 231.80 1006.93 231.81 C 1003.87 232.43 1000.79 232.87 997.77 233.65 C 991.25 236.11 987.43 242.32 985.78 248.81 C 983.85 257.41 984.17 266.24 984.17 275.00 C 984.19 279.00 984.19 283.00 984.16 287.00 C 984.21 296.05 984.16 305.10 984.19 314.15 C 984.18 315.38 984.18 316.61 984.19 317.84 C 984.16 343.23 984.21 368.61 984.17 394.00 C 984.20 410.33 984.19 426.67 984.17 443.00 C 984.19 448.20 984.18 453.41 984.20 458.62 C 960.28 458.80 936.37 458.65 912.45 458.70 C 912.45 352.68 912.46 246.67 912.45 140.65 C 934.67 140.65 956.88 140.65 979.10 140.65 C 979.18 157.01 978.94 173.37 979.23 189.73 C 981.31 183.55 982.64 177.11 985.27 171.11 C 986.08 169.04 986.96 167.00 987.85 164.96 C 988.09 164.45 988.58 163.44 988.82 162.93 C 995.55 149.17 1007.08 137.09 1022.18 132.92 C 1024.23 132.56 1026.32 132.33 1028.42 132.16 L 1028.47 131.64 Z" />
<path fill="#fefefe" d=" M 1092.93 144.98 C 1106.19 136.96 1121.61 133.19 1136.95 131.98 C 1153.42 130.69 1170.26 131.68 1186.12 136.58 C 1204.54 142.07 1221.46 153.81 1231.27 170.56 C 1240.99 186.53 1244.16 205.54 1244.33 223.99 C 1244.30 237.66 1244.31 251.33 1244.33 265.00 C 1244.31 273.00 1244.32 281.00 1244.32 289.00 C 1244.31 297.53 1244.31 306.05 1244.33 314.58 C 1204.05 314.72 1163.77 314.60 1123.50 314.64 C 1123.50 332.79 1123.50 350.93 1123.49 369.08 C 1123.44 376.13 1124.31 383.32 1127.02 389.87 C 1129.42 395.68 1134.09 400.74 1140.22 402.60 C 1147.13 404.65 1155.44 403.94 1160.90 398.82 C 1165.35 394.33 1167.11 387.99 1168.23 381.95 C 1170.01 370.89 1169.85 359.64 1170.30 348.48 C 1194.05 348.40 1217.81 348.45 1241.56 348.45 C 1242.39 370.18 1241.08 392.39 1233.75 413.05 C 1228.42 428.26 1219.15 442.37 1206.04 451.95 C 1190.90 463.27 1171.84 467.87 1153.25 469.00 L 1139.14 469.00 C 1119.55 467.81 1099.54 462.38 1084.03 449.91 C 1072.37 440.73 1063.85 427.99 1058.78 414.11 C 1058.43 413.11 1058.09 412.11 1057.75 411.12 C 1051.28 391.08 1051.73 369.81 1051.83 349.01 C 1051.83 316.66 1051.83 284.31 1051.83 251.97 C 1051.74 234.91 1052.25 217.72 1055.84 200.99 C 1058.13 191.59 1061.05 182.26 1065.79 173.79 C 1072.07 162.01 1081.40 151.79 1092.93 144.98 Z" />
<path fill="#fefefe" d=" M 247.60 140.65 C 271.32 140.65 295.03 140.65 318.75 140.65 C 318.74 153.43 318.76 166.21 318.74 178.99 C 318.75 181.66 318.54 184.38 319.18 187.00 C 318.24 195.68 318.93 204.51 318.80 213.25 C 319.03 213.82 319.49 214.95 319.72 215.52 L 318.71 215.28 C 318.71 216.14 318.71 217.86 318.71 218.72 L 319.72 218.48 C 318.48 220.10 318.76 222.15 318.73 224.05 C 318.77 241.70 318.75 259.35 318.74 277.00 C 318.74 277.74 318.74 279.22 318.74 279.96 C 319.03 288.30 318.19 296.71 319.18 304.99 C 318.61 307.31 318.71 309.69 318.73 312.06 C 318.73 312.79 318.74 314.25 318.74 314.98 C 318.75 317.65 318.51 320.38 319.19 323.00 C 318.48 325.94 318.54 329.04 319.17 332.00 C 318.17 342.52 319.07 353.17 318.71 363.74 L 319.78 363.47 C 318.23 365.33 318.87 367.82 318.73 370.02 C 318.86 373.67 318.39 377.39 319.17 381.00 C 318.53 383.62 318.54 386.37 319.17 389.00 C 318.49 391.95 318.78 394.99 318.75 397.99 C 318.74 410.31 318.77 422.63 318.73 434.95 C 318.72 436.31 318.87 437.66 319.17 439.00 C 318.62 441.30 318.71 443.67 318.73 446.03 C 318.73 446.77 318.74 448.25 318.74 448.99 C 318.74 452.22 318.76 455.46 318.74 458.70 C 295.03 458.70 271.31 458.70 247.60 458.70 C 247.60 352.68 247.60 246.67 247.60 140.65 Z" />
<path fill="#fefefe" d=" M 1277.78 145.04 C 1277.76 143.56 1277.95 142.11 1278.14 140.65 C 1301.94 140.65 1325.74 140.65 1349.54 140.65 C 1349.55 246.67 1349.54 352.68 1349.55 458.70 C 1325.62 458.64 1301.69 458.81 1277.77 458.62 C 1277.79 354.09 1277.77 249.56 1277.78 145.04 Z" />
<path fill="#000000" d=" M 434.09 199.06 C 440.65 190.57 454.11 188.94 462.72 195.17 C 467.39 198.45 470.10 203.66 472.32 208.77 C 473.46 212.78 474.73 216.83 474.67 221.05 C 474.76 232.26 474.68 243.47 474.71 254.68 C 458.35 254.64 441.99 254.76 425.64 254.62 C 425.78 242.11 425.08 229.53 427.01 217.12 C 428.12 210.73 430.09 204.28 434.09 199.06 Z" />
<path fill="#000000" d=" M 1142.26 192.21 C 1149.92 189.97 1158.41 192.38 1163.88 198.15 C 1169.65 205.44 1172.64 214.74 1172.61 224.00 C 1172.59 234.22 1172.59 244.44 1172.60 254.66 C 1156.23 254.70 1139.87 254.67 1123.50 254.68 C 1123.57 244.10 1123.27 233.52 1123.85 222.96 C 1124.40 220.65 1124.59 218.28 1124.82 215.93 C 1125.74 212.25 1126.72 208.59 1128.07 205.04 C 1130.89 199.15 1135.69 193.78 1142.26 192.21 Z" />
<path fill="#000000" d=" M 777.33 210.32 C 782.17 205.56 790.46 203.74 796.33 207.69 C 799.03 209.35 800.66 212.15 802.28 214.78 C 802.51 215.29 802.99 216.32 803.22 216.83 C 810.10 234.67 809.62 254.18 809.67 272.99 C 809.67 291.31 809.67 309.63 809.67 327.96 C 809.61 341.44 810.09 354.99 808.23 368.38 C 807.09 375.76 805.44 383.53 800.58 389.43 C 795.34 395.74 785.45 396.45 778.65 392.37 C 770.87 385.57 768.91 374.68 768.08 364.89 C 767.40 361.30 767.49 357.63 767.40 354.00 C 767.39 325.34 767.40 296.69 767.40 268.03 C 767.64 257.73 766.80 247.35 768.10 237.11 C 768.35 234.45 768.54 231.79 768.96 229.16 C 770.46 222.45 772.33 215.35 777.33 210.32 Z" />
<path fill="#fefefe" d=" M 1550.83 361.41 C 1576.12 361.41 1601.41 361.42 1626.71 361.40 C 1627.06 371.57 1626.07 381.83 1627.24 391.93 C 1627.36 414.19 1627.26 436.44 1627.40 458.70 C 1601.87 458.69 1576.35 458.70 1550.82 458.69 C 1550.83 426.27 1550.82 393.84 1550.83 361.41 Z" />
<path fill="#02abeb" d=" M 1983.62 361.49 C 2008.95 361.40 2034.27 361.47 2059.59 361.46 C 2059.65 368.67 2059.46 375.89 2060.25 383.07 C 2060.24 408.25 2060.34 433.43 2060.31 458.61 C 2034.74 458.69 2009.17 458.70 1983.61 458.60 C 1983.60 426.23 1983.57 393.86 1983.62 361.49 Z" />
<path fill="#e91b24" d=" M 1767.39 458.62 C 1767.36 426.23 1767.33 393.85 1767.41 361.46 C 1792.74 361.49 1818.07 361.39 1843.41 361.51 C 1843.54 393.88 1843.61 426.24 1843.67 458.61 C 1818.24 458.67 1792.81 458.66 1767.39 458.62 Z" />
</svg>
